P3
80 54
255
20 75 103 21 79 106 20 75 103 23 84 111 22 82 109 23 86 113 23 85 112 23 88 115 23 87 114 26 91 117 23 88 115 35 96 121 30 93 119 41 100 123 40 99 123 43 101 122 42 100 123 48 103 123 44 101 121 59 109 127 54 106 125 70 116 130 65 113 128 75 119 131 74 118 131 78 122 132 76 120 131 84 126 134 80 124 133 97 133 137 90 130 136 114 143 140 105 138 139 108 137 137 116 143 140 102 134 136 103 134 136 96 130 134 100 133 135 84 124 131 91 127 132 86 124 130 83 123 130 94 126 129 90 125 130 116 135 131 103 129 130 126 138 134 123 137 133 120 134 129 124 136 132 110 129 122 115 131 125 128 139 119 116 132 120 132 140 117 132 141 118 122 135 117 128 138 117 123 137 115 122 135 116 125 136 114 124 137 115 130 138 112 127 137 113 130 138 112 131 138 112 126 137 114 128 138 113 123 136 116 125 137 115 119 134 116 121 135 116 110 128 115 115 131 116 91 115 111 100 122 113 69 101 105 80 108 108 69 101 105 20 74 101 20 76 104 21 79 107 22 81 108 22 82 109 22 83 110 22 84 111 23 85 113 23 86 114 27 89 116 30 91 117 35 94 119 39 97 121 41 98 121 43 99 122 44 99 121 45 100 121 48 101 122 50 102 123 55 105 124 60 108 125 65 111 127 71 115 129 73 116 129 74 117 130 76 119 130 77 120 131 80 122 132 84 125 133 88 127 134 92 129 135 98 132 136 106 136 137 107 136 137 104 134 136 102 133 136 102 133 136 99 131 134 93 127 132 88 124 131 83 121 130 81 120 129 82 120 128 85 121 128 92 123 128 100 126 129 110 130 130 117 133 131 119 133 132 120 133 131 116 131 129 113 128 126 108 126 122 110 127 119 122 133 119 130 137 118 127 135 117 124 133 116 120 131 116 116 129 115 115 129 115 114 128 114 113 127 113 114 127 112 118 129 112 121 130 111 119 129 111 117 128 111 116 128 112 115 128 113 113 127 114 112 126 114 111 127 114 111 127 114 111 127 114 110 126 113 102 121 112 94 115 110 85 109 106 76 103 103 19 72 99 20 75 102 21 77 105 21 78 106 21 79 107 21 80 108 21 81 109 22 83 111 24 85 113 28 87 114 31 90 116 35 92 117 39 95 119 42 96 120 45 98 121 46 98 121 48 99 120 49 99 120 50 100 121 53 102 122 58 105 123 63 109 125 69 112 127 71 114 128 73 115 129 74 116 129 76 118 130 78 120 131 82 122 132 84 123 132 86 123 132 90 125 133 96 127 134 99 129 134 101 130 135 102 131 135 102 132 135 98 129 134 91 124 131 86 120 130 83 119 129 80 117 128 78 116 127 81 117 126 90 120 127 98 123 127 106 126 128 111 128 129 114 129 130 114 128 130 112 126 128 109 124 125 105 122 121 107 123 118 120 130 117 127 133 117 122 130 116 118 127 115 115 125 114 112 124 114 107 121 113 103 119 113 102 118 112 102 117 111 108 120 110 112 123 110 108 120 110 105 118 110 105 119 111 105 119 112 103 118 112 101 117 112 102 118 113 104 120 113 107 122 113 111 124 112 104 120 110 98 116 109 91 110 105 84 105 101 18 69 96 19 72 99 20 75 102 21 76 102 21 77 103 20 77 104 20 78 105 22 80 107 23 82 109 28 85 111 33 89 114 38 92 116 42 95 118 46 97 119 49 99 120 50 99 120 50 99 120 50 99 120 51 100 120 54 101 120 57 103 121 62 106 123 67 110 125 69 111 125 70 111 126 71 112 126 72 113 126 74 115 127 76 117 127 79 118 128 82 119 128 86 120 129 89 121 129 92 123 130 93 124 131 94 125 131 94 125 131 91 122 129 85 119 127 83 117 126 82 117 127 81 117 127 80 116 126 83 116 125 90 119 125 96 121 125 101 122 126 104 123 126 105 123 127 105 123 126 103 121 125 102 120 123 101 119 120 104 120 118 116 126 117 122 129 117 118 126 116 115 124 115 113 123 113 110 121 111 105 118 109 100 115 107 98 113 106 96 112 106 100 115 107 102 116 109 99 115 109 97 113 110 99 115 110 101 116 111 102 116 111 102 116 111 101 117 111 100 117 111 104 119 110 107 120 110 103 118 108 99 115 106 93 110 103 87 106 100 17 66 92 19 70 95 20 73 98 20 74 99 20 74 99 20 74 100 19 74 100 21 77 102 23 79 104 29 84 108 35 88 112 40 92 114 45 95 117 49 97 118 53 99 120 53 100 120 52 99 119 52 99 119 53 100 118 54 100 119 56 101 119 61 104 121 66 107 123 67 108 123 67 107 122 67 107 122 68 108 122 69 109 122 71 111 122 75 113 123 79 115 125 82 115 125 83 115 125 84 116 125 85 118 127 85 118 127 85 117 127 83 115 125 80 113 123 80 113 123 82 115 125 83 116 126 82 115 125 84 116 125 89 117 124 93 118 123 95 118 123 96 118 123 96 118 123 95 117 123 94 115 121 94 115 120 97 116 119 101 118 118 111 122 117 117 125 117 114 123 116 112 122 114 111 120 112 109 118 109 103 114 104 97 111 100 94 109 100 91 108 101 92 109 104 92 109 107 91 109 108 90 109 109 94 111 110 98 113 110 101 115 111 104 117 111 100 115 109 97 113 108 100 115 108 102 116 107 101 115 105 100 114 102 95 110 101 91 107 99 16 63 87 18 67 90 21 71 94 22 72 96 24 74 98 22 73 97 20 73 97 21 75 98 23 77 100 29 81 104 35 86 109 41 90 112 46 94 115 50 96 116 53 98 117 54 98 117 53 98 117 53 98 117 53 99 117 54 99 117 55 100 118 59 102 118 64 103 118 65 103 117 65 102 116 63 98 110 62 93 102 64 96 105 69 104 114 72 108 118 76 110 121 78 111 121 79 111 121 80 112 121 81 113 122 81 113 122 81 112 121 80 111 120 79 110 119 80 111 119 82 113 121 83 113 121 83 113 120 84 112 120 87 113 119 89 113 118 91 114 119 93 114 119 93 114 120 92 114 120 90 112 119 89 111 118 89 110 117 92 112 116 101 116 116 107 119 115 107 119 114 108 119 113 110 119 110 110 118 108 104 114 104 98 110 100 93 107 99 89 105 99 88 105 101 88 105 104 86 105 105 85 104 106 88 106 106 91 107 107 96 111 107 100 113 108 97 112 107 95 110 106 96 110 104 96 111 102 95 109 99 93 108 97 92 107 96 91 106 95 14 59 81 18 64 86 22 68 90 25 71 93 27 74 96 24 73 95 20 71 94 22 73 95 24 74 96 29 79 101 35 84 106 41 88 110 47 92 114 50 95 114 53 97 114 54 97 114 54 96 114 54 97 115 54 98 116 54 98 116 55 99 117 58 99 116 61 99 114 63 98 112 63 97 110 60 88 97 55 76 80 59 82 87 66 96 105 70 103 113 73 106 116 74 107 117 75 107 117 76 108 117 78 109 118 78 109 117 77 107 116 77 107 115 78 108 115 80 109 116 83 111 116 84 111 116 83 110 115 83 109 114 84 108 113 85 108 113 87 109 114 89 110 115 90 111 116 90 111 117 86 109 117 83 107 116 81 105 114 82 105 113 90 109 114 97 112 114 101 114 113 105 116 111 109 118 109 111 118 106 105 114 103 99 110 101 92 106 99 86 102 97 85 102 99 83 101 100 81 100 101 80 100 102 81 101 103 84 102 103 90 106 104 96 109 104 94 108 104 92 107 103 91 106 100 91 105 96 88 103 94 86 102 92 88 103 91 90 104 91 17 58 77 20 61 81 24 65 86 26 68 89 29 71 92 26 70 91 23 69 90 24 71 91 25 72 92 28 75 95 31 78 99 38 83 104 45 89 109 50 92 111 54 95 112 55 95 112 55 95 112 55 96 113 55 97 114 56 97 113 57 97 113 57 93 106 58 88 97 57 84 91 57 81 87 55 75 78 53 68 67 58 76 77 65 91 97 69 99 107 71 102 112 72 104 114 72 104 114 73 104 114 74 105 114 74 104 113 73 103 112 74 103 112 76 105 113 79 106 113 81 108 114 82 108 113 82 107 112 82 106 112 83 106 111 85 106 111 86 107 112 88 108 113 89 108 113 87 108 113 82 104 112 77 102 111 75 100 110 76 100 109 83 104 109 90 107 109 97 110 107 103 113 106 108 114 104 110 115 102 105 112 100 99 108 98 92 104 97 86 101 97 84 100 97 81 99 98 79 97 99 77 97 99 79 98 100 81 99 100 86 101 101 90 104 101 87 102 100 84 101 99 86 101 97 87 101 95 83 99 93 80 96 90 85 99 90 89 102 90 20 56 74 23 59 77 26 62 81 28 65 84 30 67 87 28 67 87 27 67 87 26 69 87 26 70 88 26 71 90 26 72 91 34 78 97 43 85 104 49 89 107 54 93 110 56 94 110 57 94 110 57 95 111 57 95 111 58 95 110 58 94 108 57 87 95 54 76 79 51 69 69 50 64 62 50 61 58 52 61 55 57 71 68 64 86 88 67 94 100 69 99 108 70 101 111 70 101 111 70 100 111 70 100 110 69 99 109 69 98 108 70 99 109 74 102 110 77 104 111 80 105 111 81 105 111 80 104 110 81 104 110 83 104 110 84 104 110 86 105 110 86 105 110 87 105 110 85 104 109 77 100 107 72 96 106 70 95 105 71 96 105 77 98 104 85 101 103 94 105 101 101 109 100 106 111 99 108 112 97 104 109 96 100 106 96 93 103 96 87 100 96 83 98 97 80 96 97 76 95 97 74 94 96 76 95 96 79 96 97 81 97 97 83 98 97 79 95 96 76 93 95 80 96 95 83 98 95 79 94 92 74 91 88 81 96 89 88 100 89 21 54 71 22 56 73 24 59 76 25 61 79 27 63 82 27 64 82 26 64 83 27 66 85 28 69 87 27 69 88 27 70 89 34 76 94 42 82 101 48 87 104 53 91 108 54 92 108 55 92 108 55 93 109 55 93 109 56 93 108 57 93 107 55 84 92 51 72 74 49 65 64 48 60 57 51 61 57 55 65 60 59 73 69 64 81 81 67 90 93 70 98 106 71 101 111 71 101 111 70 100 110 69 98 109 68 97 108 68 97 107 70 98 107 75 101 109 80 105 111 86 108 112 88 109 112 88 108 111 88 107 111 90 108 111 91 107 111 90 107 110 89 106 110 87 105 108 84 102 107 77 97 104 72 94 103 69 92 102 70 92 101 76 95 101 83 99 100 91 103 99 98 106 97 101 107 96 102 107 95 99 105 94 96 103 93 91 101 94 87 99 94 84 97 95 81 96 96 76 94 95 73 92 95 74 92 94 75 92 93 76 92 93 78 92 92 75 91 92 73 90 91 78 93 91 82 95 92 81 95 90 81 95 88 85 98 89 90 102 89 20 52 68 21 54 69 21 55 71 23 57 74 24 59 77 24 60 78 25 61 80 27 64 82 29 67 85 29 68 86 29 69 87 35 74 92 42 80 98 47 84 102 51 89 106 53 90 106 53 90 106 53 90 107 53 90 107 54 91 107 56 91 105 53 82 91 49 68 71 48 62 61 48 59 55 53 64 59 60 72 67 63 76 71 64 78 73 67 85 85 72 97 103 73 101 110 73 101 110 71 100 109 69 97 108 68 96 107 68 95 106 71 97 106 77 101 108 84 106 111 93 111 113 97 114 114 97 113 113 97 112 113 99 112 113 98 111 112 95 109 111 92 107 109 88 104 107 84 100 105 77 96 102 72 92 100 69 90 99 69 90 98 75 93 98 81 96 97 88 100 97 93 102 96 94 102 94 95 102 93 93 101 92 91 99 91 88 98 91 86 97 92 85 97 93 83 96 94 77 93 94 72 90 93 71 89 92 71 88 90 72 87 89 73 87 87 72 87 87 72 88 88 76 90 88 81 93 88 85 96 88 89 100 89 91 102 89 93 104 90 18 50 65 20 51 67 21 53 68 23 55 72 25 58 75 26 59 77 27 61 78 28 63 80 29 65 83 30 67 85 30 69 87 35 73 91 41 78 96 46 82 100 50 87 103 52 88 105 52 89 105 52 89 106 52 89 106 52 89 105 52 88 104 51 83 95 50 76 84 51 72 76 53 69 70 59 74 74 66 83 84 70 87 87 70 87 86 72 92 94 75 99 106 76 102 110 75 101 110 74 100 109 73 99 109 72 98 108 73 99 108 76 100 108 82 104 110 90 109 112 100 115 115 105 118 116 106 118 115 107 118 115 108 117 114 106 116 113 100 112 111 95 108 109 89 104 107 84 100 105 78 95 102 74 92 100 71 90 98 71 90 97 77 94 98 83 97 97 87 99 96 90 100 95 90 99 94 90 99 93 90 99 93 89 98 92 87 97 92 85 96 92 85 97 93 85 97 95 80 95 94 76 92 93 74 89 91 71 87 88 72 86 86 72 86 84 72 86 85 72 87 85 75 88 84 78 89 84 84 95 86 90 99 88 89 100 87 89 100 87 16 48 63 19 49 64 22 51 66 25 55 70 27 58 74 28 59 76 29 60 77 28 61 79 28 62 80 30 65 83 32 69 87 36 72 90 40 76 94 44 80 97 49 85 101 51 86 103 52 87 104 52 87 105 51 87 105 50 86 104 48 85 103 50 85 101 52 85 100 56 84 95 60 82 89 66 87 93 74 96 103 77 99 106 79 100 104 79 101 106 79 102 110 78 102 111 78 101 110 77 101 110 77 101 110 78 102 110 79 103 110 83 105 111 89 108 112 97 112 114 107 118 116 113 122 118 115 123 117 116 123 117 117 123 116 114 120 114 105 114 111 97 109 108 90 103 106 84 99 104 80 96 102 77 93 100 74 92 99 74 92 98 80 95 98 85 98 98 86 98 96 86 97 95 86 96 93 86 96 92 87 97 94 88 98 94 85 95 93 83 94 92 85 97 94 87 98 96 85 97 95 82 95 94 77 90 90 73 86 86 73 86 84 73 85 82 73 86 82 74 86 82 74 86 81 75 86 80 82 92 83 88 97 86 86 97 85 84 96 83 17 46 61 19 48 63 22 50 66 25 54 69 28 57 73 29 59 75 30 60 77 30 61 78 29 62 79 31 65 82 33 68 86 36 71 89 39 74 92 43 78 95 47 81 98 48 83 100 49 84 101 49 84 102 48 83 102 47 83 101 46 82 100 49 84 102 54 88 104 59 89 102 65 89 98 71 92 100 76 98 105 79 101 108 81 103 109 82 104 111 82 105 112 83 105 112 84 105 112 85 106 113 86 107 113 87 108 114 89 109 115 94 112 115 100 115 116 107 119 117 116 124 119 121 127 119 123 128 119 125 128 119 125 127 118 120 123 116 110 116 112 101 110 109 93 105 107 86 100 105 82 97 102 78 94 100 76 92 99 76 92 98 81 96 98 86 98 98 87 98 97 86 97 95 84 95 93 83 94 92 85 95 93 87 97 94 86 96 93 85 96 93 86 97 95 87 98 95 85 96 94 82 94 92 77 89 88 73 85 84 74 85 83 74 85 82 74 85 81 74 85 80 73 85 79 73 84 78 79 89 80 84 94 83 83 94 81 82 93 80 18 45 60 20 47 63 22 49 65 25 53 68 28 56 71 30 58 74 31 61 77 31 61 78 30 61 78 32 64 81 34 68 85 36 70 88 39 72 90 41 75 92 43 78 95 45 79 96 47 81 98 45 80 98 44 79 97 43 78 97 43 79 98 48 83 100 55 88 104 62 91 104 70 94 103 74 95 103 77 96 102 80 99 106 82 103 111 84 106 113 86 107 113 88 108 114 91 110 115 93 112 116 95 114 117 98 116 119 101 117 120 106 119 121 112 122 121 119 126 121 125 130 121 130 132 121 132 133 121 132 133 120 132 130 119 126 126 117 115 118 114 105 111 110 96 106 108 89 102 105 84 98 103 80 95 100 77 93 98 77 93 97 82 96 97 86 98 97 88 98 97 87 98 96 83 94 93 81 91 91 84 94 92 86 96 93 87 97 94 88 98 95 86 97 95 85 96 95 84 94 92 81 92 89 76 87 86 72 84 82 75 85 82 76 86 81 75 85 80 74 84 78 73 83 77 72 83 76 76 86 77 79 89 78 80 90 78 81 92 78 18 44 59 20 47 62 22 49 65 25 52 68 27 55 70 30 58 73 31 60 76 32 61 77 31 62 79 33 64 82 34 67 85 37 70 88 40 72 90 42 74 92 43 77 94 46 79 96 48 80 99 47 80 99 45 79 98 47 80 99 49 82 101 55 86 103 62 92 107 69 95 108 75 98 108 77 97 106 78 96 102 81 99 106 85 105 112 88 108 115 91 110 116 95 112 118 100 116 119 104 119 121 107 122 123 111 124 124 114 126 126 119 127 126 123 129 125 128 131 125 132 134 125 135 135 124 137 136 124 137 135 123 135 133 122 130 128 120 120 121 117 111 115 113 102 109 110 94 104 107 88 100 104 83 96 101 80 95 100 81 95 99 87 98 99 91 101 99 92 101 98 92 100 96 86 95 92 83 91 90 84 93 90 86 95 91 87 96 92 88 97 93 86 96 93 84 94 92 82 92 89 81 91 87 78 88 84 76 86 82 78 87 81 79 87 81 78 86 79 76 85 78 74 84 76 72 82 75 74 85 75 76 87 76 77 88 76 78 88 76 17 43 57 20 46 61 22 49 64 24 52 67 27 54 70 29 57 73 31 59 75 32 61 77 33 63 79 34 65 82 35 67 85 38 70 88 41 72 91 43 75 93 44 77 95 47 79 98 50 81 100 50 81 100 49 81 100 53 83 103 58 87 106 65 92 108 72 97 111 76 100 112 80 101 113 80 100 109 80 96 104 84 100 107 89 107 114 94 111 118 97 113 119 102 117 122 109 122 124 115 126 127 120 130 129 124 133 131 128 135 132 131 135 131 133 135 130 135 136 129 138 137 128 139 137 128 140 137 127 140 137 126 138 135 126 133 131 124 127 126 121 118 120 117 108 113 113 99 107 109 92 102 106 87 98 103 85 97 101 86 98 101 92 102 102 97 105 101 98 105 99 97 103 97 91 97 92 86 93 89 86 93 88 86 94 88 87 95 90 88 95 91 85 94 90 83 92 89 81 91 87 80 89 85 80 90 83 81 90 82 81 90 81 82 89 81 80 88 79 79 87 78 76 85 76 74 83 74 74 84 74 74 85 74 74 85 74 75 85 74 18 43 58 20 46 61 22 49 64 25 51 67 27 54 70 29 57 73 32 59 76 34 62 78 35 64 81 36 66 84 37 68 87 39 70 89 42 72 92 45 76 95 49 79 98 52 82 100 55 84 103 56 85 104 57 86 104 61 89 106 66 92 109 72 96 111 78 100 113 81 102 114 83 104 115 83 101 111 81 96 104 85 100 107 91 107 115 96 112 119 99 114 121 105 118 124 112 123 127 118 128 129 125 133 132 130 136 133 134 138 134 137 139 134 138 138 132 139 138 131 140 138 130 141 138 130 142 139 130 142 138 130 140 137 129 137 134 127 131 129 124 124 124 120 114 117 115 106 110 111 98 105 108 93 102 105 93 102 104 94 103 103 100 106 104 105 109 103 105 108 101 104 106 98 97 101 93 92 96 90 89 95 88 87 93 87 87 93 88 86 92 88 84 91 87 82 90 86 82 90 85 82 90 84 82 91 83 83 91 82 83 90 81 84 90 80 84 90 79 84 90 78 81 88 77 79 86 75 77 86 75 76 85 74 75 85 74 74 84 73 19 44 59 21 46 62 23 49 65 25 51 67 27 54 70 30 57 74 32 60 77 35 63 80 38 66 83 39 68 86 39 69 88 40 71 90 42 72 92 48 77 96 55 83 101 58 86 104 61 88 106 64 90 108 67 92 109 70 94 110 74 97 112 78 99 113 82 102 114 84 104 115 86 105 116 85 102 112 81 96 105 85 99 108 92 107 116 97 112 120 100 114 123 105 117 125 112 121 128 119 126 130 127 132 133 133 136 134 138 138 135 140 140 135 141 140 133 141 139 132 141 139 132 141 139 133 142 139 133 143 140 133 143 139 132 141 137 130 136 132 126 129 127 122 120 120 117 112 114 113 105 109 110 101 106 108 102 107 107 104 109 107 109 112 106 112 113 105 112 112 102 110 110 99 105 105 95 99 101 92 93 97 90 89 93 88 85 91 86 83 89 85 82 88 84 81 87 83 83 90 84 86 92 85 85 92 83 85 91 81 85 90 80 85 90 79 87 91 79 89 92 79 87 91 78 85 90 76 83 88 76 80 87 75 77 86 74 74 84 73 22 46 61 23 49 64 25 51 67 27 53 69 28 55 71 31 59 75 34 62 79 38 65 82 41 69 86 42 70 88 43 71 90 43 72 92 44 73 93 50 78 97 56 84 102 61 88 105 65 91 109 69 93 110 73 96 112 75 97 112 76 98 112 79 100 113 82 102 114 84 102 115 86 103 115 85 100 111 83 96 106 87 100 109 95 108 117 99 112 121 101 113 123 105 116 126 111 119 128 119 124 130 128 131 132 134 135 134 138 138 134 141 139 134 142 139 133 142 139 133 141 139 133 140 139 133 141 139 134 142 139 133 142 138 132 141 137 130 137 134 128 132 130 124 125 124 120 118 118 116 112 113 112 108 110 110 110 112 110 112 113 109 115 115 107 117 115 105 117 114 102 115 112 99 110 109 96 105 105 93 98 100 91 91 95 88 85 90 86 80 86 83 80 86 82 80 86 82 84 89 83 87 92 84 86 92 82 86 91 81 88 92 80 90 93 80 92 94 80 95 95 80 94 94 79 92 93 78 89 92 77 86 91 76 82 89 75 79 87 74 25 50 65 27 52 67 29 54 69 29 55 70 29 56 72 33 60 77 37 65 82 41 68 85 45 72 89 46 73 91 46 74 93 47 75 94 47 75 94 51 79 98 56 83 102 62 87 106 68 92 110 73 95 112 77 98 114 77 98 113 76 97 112 78 99 112 82 100 114 83 100 113 83 99 112 84 98 109 85 96 106 90 101 111 98 109 119 101 112 123 101 112 124 105 114 126 110 118 128 119 123 130 129 130 132 135 134 132 137 136 133 140 137 133 141 139 133 142 139 134 141 138 134 140 138 134 140 137 133 140 137 132 139 136 131 139 135 130 138 134 128 135 132 126 130 127 122 124 122 118 118 117 115 115 115 112 118 116 112 120 117 110 121 117 108 121 117 105 120 115 102 118 113 99 116 111 97 111 108 95 103 103 92 94 98 89 85 90 86 78 84 83 78 84 82 79 84 81 83 88 82 86 91 83 87 92 82 88 92 81 92 94 81 97 97 81 99 98 81 101 99 81 100 98 80 99 97 79 96 96 78 93 94 77 90 93 76 87 91 75 29 52 68 31 55 70 33 57 73 33 58 74 33 59 75 36 63 79 40 67 84 44 70 87 48 74 90 50 75 93 51 77 95 51 77 96 50 77 96 54 80 99 58 84 103 64 88 107 71 93 111 75 96 113 78 98 114 79 98 113 78 98 112 79 98 112 81 99 113 81 97 111 81 95 108 84 96 108 88 98 109 95 103 114 103 111 120 106 114 124 106 114 126 109 116 127 114 119 128 121 123 130 129 129 131 134 133 131 136 135 131 138 136 132 140 137 133 141 138 134 140 138 134 139 137 133 137 135 131 137 134 130 137 134 129 136 133 129 136 133 128 134 131 126 131 127 122 127 124 119 122 120 116 120 118 114 123 119 113 125 120 112 125 119 109 125 119 106 125 118 103 125 117 100 122 115 98 117 112 96 107 106 93 97 100 90 87 91 86 80 85 83 80 85 82 81 86 82 86 90 83 90 93 84 92 95 83 95 96 82 99 98 82 102 100 82 105 101 82 107 102 82 105 101 81 104 100 80 101 98 79 98 97 77 94 94 76 90 92 75 32 54 70 34 58 74 37 61 77 38 62 78 38 63 79 41 66 82 43 69 86 47 72 89 51 75 91 53 78 94 56 80 98 55 80 98 54 80 98 58 83 101 62 86 105 67 89 108 72 93 111 75 95 112 78 97 112 80 98 113 82 100 114 81 99 113 80 97 111 80 95 108 80 92 104 85 95 107 93 101 113 101 107 118 108 113 122 112 116 125 115 118 127 118 120 128 120 123 129 124 125 129 128 128 129 132 131 130 134 133 130 137 135 131 139 136 133 140 137 133 139 136 133 138 135 132 134 132 128 133 131 127 134 131 127 134 131 127 133 130 126 131 128 124 129 125 121 126 123 118 124 121 116 124 120 115 127 121 115 129 122 113 129 121 110 129 121 107 132 122 105 133 122 103 129 119 100 123 115 98 111 108 94 100 101 91 91 94 87 83 88 84 84 88 83 85 89 83 90 93 84 95 97 85 100 100 85 105 102 85 106 103 84 107 103 83 110 104 83 113 105 83 110 103 82 107 101 80 104 100 79 101 98 78 95 94 76 90 91 74 36 58 74 39 62 78 42 66 82 43 67 84 44 69 85 46 71 87 49 73 90 51 75 92 54 77 94 57 80 96 59 82 99 59 82 100 59 83 101 63 85 103 67 88 106 70 90 108 73 93 110 75 95 111 77 96 111 81 99 113 86 102 115 85 100 114 83 98 111 83 95 108 83 93 105 90 97 109 99 105 116 106 110 120 112 114 122 116 118 125 120 120 127 123 123 129 126 126 129 128 128 129 129 128 129 131 130 129 134 133 130 136 134 131 137 135 132 138 136 133 138 136 133 136 134 131 133 131 127 131 129 126 132 129 126 131 129 126 130 127 125 128 126 123 126 123 119 125 121 117 123 119 116 123 119 115 126 120 114 129 121 113 131 122 111 134 124 109 138 125 107 139 126 105 135 123 102 128 118 98 116 111 95 105 103 92 96 97 89 89 92 86 92 93 86 95 95 85 100 99 86 104 102 87 107 104 86 110 105 86 110 104 84 111 104 83 115 106 84 118 108 84 114 105 82 110 103 80 106 101 79 103 99 78 97 95 75 91 91 73 40 62 78 44 66 83 47 71 88 49 73 90 52 75 92 53 76 93 55 78 95 57 79 96 59 80 97 60 81 98 62 83 100 63 84 102 65 85 103 68 88 105 72 90 107 73 92 108 74 92 109 75 93 109 76 94 110 82 99 113 90 104 116 90 103 115 89 100 112 89 99 111 91 98 110 97 102 114 105 108 118 110 112 121 114 114 121 118 118 124 122 121 126 126 125 128 130 129 129 131 130 130 131 130 130 132 131 130 134 133 129 135 134 130 136 135 132 137 135 132 137 135 132 135 134 131 133 131 127 131 129 126 130 129 126 129 128 125 127 125 123 125 123 121 123 120 118 121 118 115 120 117 114 120 116 112 122 117 111 126 119 111 133 123 111 140 127 111 143 128 109 144 129 107 139 125 103 132 120 99 121 113 96 111 106 94 102 100 91 96 96 88 102 100 89 108 103 89 112 106 89 114 108 89 112 106 88 111 105 86 111 104 84 113 104 83 118 107 84 123 110 85 118 107 83 113 104 81 109 102 79 105 100 77 99 96 75 92 92 74 44 67 84 48 71 89 51 74 94 53 77 96 55 79 98 57 80 99 58 81 100 60 82 100 62 83 101 63 83 102 64 84 103 66 86 105 69 88 107 72 91 109 76 93 111 77 94 111 77 95 111 79 96 113 81 98 114 87 102 117 95 106 120 96 106 119 96 104 116 97 104 115 99 105 116 105 108 118 112 113 122 115 115 123 117 116 123 120 119 125 124 123 128 129 127 130 134 133 132 136 135 133 136 135 133 136 135 133 137 136 132 138 137 133 139 138 134 139 138 135 139 138 134 138 137 133 136 134 131 135 133 129 134 133 129 133 131 128 130 129 126 128 125 123 124 122 120 122 119 117 120 118 115 120 117 113 122 117 112 127 119 111 135 124 112 141 128 113 145 130 111 146 130 109 142 126 105 136 122 102 126 115 99 116 109 96 107 104 93 101 100 91 109 105 92 117 109 93 119 110 93 120 111 92 117 109 90 113 106 87 115 106 86 117 107 85 123 110 86 128 113 87 123 110 85 117 106 82 112 104 80 108 101 78 102 98 77 96 94 76 49 73 92 51 75 95 52 77 98 54 80 101 56 82 103 58 83 104 59 84 105 61 85 106 63 85 107 64 86 107 65 87 108 68 88 109 71 90 111 75 93 113 79 96 116 81 98 117 83 99 118 87 102 119 92 105 122 96 107 124 100 110 126 102 111 125 103 111 124 106 111 122 108 111 122 112 114 123 118 118 125 120 120 127 120 120 127 123 122 128 126 125 131 132 130 134 138 137 137 141 140 139 142 141 139 142 141 139 142 141 138 143 142 138 144 143 139 145 144 139 144 143 139 143 142 138 141 140 137 141 139 136 141 140 137 141 139 136 138 136 133 134 132 130 129 128 125 125 124 121 124 122 119 123 120 117 126 120 115 129 122 114 135 124 114 140 127 113 144 129 113 146 130 111 143 127 109 138 124 106 129 118 102 120 112 99 111 107 96 106 104 94 114 108 95 120 112 96 122 113 96 123 113 95 120 111 93 117 109 90 121 110 89 124 112 88 130 115 90 134 118 91 128 114 88 122 109 85 116 106 83 111 103 81 107 101 80 103 99 79 53 79 100 54 80 102 55 81 105 56 83 106 57 84 108 59 86 109 60 87 110 63 88 112 66 89 113 68 90 113 69 91 113 72 93 114 75 94 116 80 98 119 85 101 122 88 103 123 91 106 124 96 109 126 101 112 128 104 113 130 105 114 130 108 115 130 110 116 130 112 116 127 114 116 125 118 119 125 123 123 128 125 124 129 126 125 130 128 127 132 131 129 134 137 135 137 144 143 142 148 147 144 149 148 145 149 148 145 149 148 144 149 148 144 151 150 145 151 150 145 150 149 145 149 147 144 147 146 142 147 145 142 147 146 142 147 145 142 145 143 139 141 139 136 136 134 130 132 130 126 130 128 124 129 126 122 131 126 120 134 126 119 139 128 118 144 131 117 148 133 117 150 134 116 147 131 114 143 128 111 135 122 107 127 117 103 119 113 101 115 110 99 122 114 99 128 117 100 128 117 99 128 117 99 127 116 97 126 115 95 131 118 95 137 121 94 142 125 95 146 127 96 139 122 93 133 118 90 128 114 88 122 111 85 120 110 85 117 109 84 58 84 109 59 85 110 59 86 112 59 87 113 58 87 113 60 88 114 61 90 115 65 92 117 70 94 119 73 95 120 76 97 120 79 98 121 82 100 122 88 104 125 94 108 128 98 111 130 103 114 131 107 116 133 110 119 134 111 119 135 112 119 134 114 120 134 117 122 134 117 120 130 117 118 125 121 121 126 128 127 129 132 130 131 134 131 133 136 134 135 139 136 137 144 142 141 151 149 146 155 154 150 157 156 152 158 156 152 157 155 151 157 155 150 158 156 152 158 156 152 157 155 151 156 153 150 154 151 147 152 150 146 152 150 146 152 149 145 151 148 144 148 145 141 144 141 136 141 137 133 139 136 131 138 134 129 138 133 126 141 133 125 148 136 124 155 139 124 159 142 124 160 142 123 155 138 120 150 134 116 143 129 113 136 124 109 130 120 107 127 118 105 133 122 105 138 125 105 138 124 104 138 124 103 138 124 102 139 125 101 148 130 102 155 136 102 159 138 102 162 140 102 156 136 99 150 131 96 146 128 94 142 125 92 140 125 91 138 124 90 66 88 112 66 90 113 67 91 115 68 92 116 68 92 116 70 94 117 72 96 118 77 99 121 82 102 123 85 103 123 87 104 123 91 106 124 95 108 125 101 112 128 107 117 131 111 120 132 116 122 134 118 124 135 120 125 136 122 126 136 123 126 136 125 128 136 128 129 137 126 126 132 122 121 125 128 125 126 137 134 132 142 138 136 145 140 138 148 143 140 151 146 142 155 150 146 161 156 151 164 160 154 167 162 157 167 163 157 166 162 156 166 162 156 168 163 158 168 163 158 168 163 157 167 161 155 165 159 152 163 157 151 161 155 150 161 155 149 161 154 147 161 153 145 157 150 141 155 147 137 154 146 135 154 145 133 153 143 130 155 143 129 162 147 129 169 150 129 172 152 128 173 153 127 168 148 123 163 144 119 158 140 116 153 136 113 149 133 111 147 132 109 152 135 109 155 137 108 155 136 107 155 136 106 156 137 105 158 138 105 166 144 106 174 150 107 176 151 106 178 153 105 173 149 103 168 145 100 165 143 98 162 140 96 160 140 95 159 139 94 76 91 109 78 94 111 80 96 113 84 99 115 88 102 116 91 104 117 94 106 119 98 109 121 103 112 123 104 113 123 104 112 122 110 116 124 116 120 125 121 124 127 125 127 129 128 129 131 130 130 132 130 130 132 130 130 132 135 133 134 140 137 136 143 138 136 145 140 136 139 134 131 130 126 123 137 132 128 152 145 138 158 150 143 160 152 145 163 155 147 167 158 150 170 161 152 172 164 154 175 166 156 177 168 158 178 169 159 178 169 160 179 170 161 181 172 162 182 172 163 182 172 162 182 171 160 181 168 157 179 166 155 175 164 153 175 163 151 177 163 149 178 163 146 177 161 142 176 159 139 177 160 137 178 159 135 176 157 132 177 157 130 183 160 130 187 163 130 190 165 128 190 165 126 187 162 123 183 159 119 181 156 117 179 154 114 177 152 112 176 151 111 178 153 110 181 154 109 180 154 108 180 154 107 182 155 106 184 157 106 189 160 107 193 164 108 194 165 107 194 165 106 191 162 103 187 159 101 185 157 99 183 156 98 181 156 97 180 156 97 92 99 108 95 102 110 99 106 113 104 110 114 110 114 116 113 116 118 117 118 119 120 121 121 124 124 124 123 123 123 122 122 122 128 126 123 135 131 125 139 134 127 142 136 128 144 138 129 145 139 131 146 139 131 146 140 131 152 143 133 159 148 136 160 149 136 160 148 135 153 142 130 142 133 124 151 141 130 168 156 143 175 162 148 176 163 150 179 166 153 183 170 155 185 171 156 186 172 157 187 174 159 190 175 160 191 177 161 192 178 163 193 179 164 195 180 165 197 181 166 198 182 165 198 181 163 197 179 160 195 176 157 191 173 155 190 172 152 194 173 150 195 173 148 194 171 144 195 171 140 197 172 139 198 172 136 196 170 133 195 168 130 196 169 129 198 170 128 202 174 127 205 176 126 203 174 123 201 172 120 200 171 118 200 169 115 199 168 114 198 167 112 199 168 111 200 169 110 200 169 109 201 169 108 202 170 107 203 171 107 205 173 108 207 175 108 207 175 107 206 174 106 203 171 103 200 169 101 198 167 100 196 166 98 194 165 98 193 165 97 114 113 110 119 118 112 125 122 114 129 125 115 134 128 117 137 130 118 141 133 120 143 135 122 145 136 124 143 134 123 141 132 121 145 135 123 151 140 124 155 143 126 159 145 127 161 147 129 162 148 130 166 151 132 170 155 134 175 158 136 179 161 138 177 159 136 173 155 133 167 150 130 161 145 127 170 153 133 186 167 144 193 173 150 195 175 153 197 177 155 200 179 157 202 181 158 202 182 159 204 184 160 206 186 161 208 187 162 208 188 163 210 189 164 211 190 166 213 191 167 215 193 167 216 192 166 214 190 162 212 188 159 209 184 155 208 183 153 210 184 151 211 184 148 210 182 144 211 182 141 213 184 139 213 184 137 210 180 133 206 176 129 200 171 124 199 170 122 209 179 125 216 185 127 216 185 125 216 184 123 215 182 120 214 181 117 212 178 114 211 177 113 212 179 113 213 180 114 213 180 112 213 180 110 213 179 110 213 179 109 214 180 110 214 181 110 213 180 108 211 178 106 208 175 103 205 172 100 202 170 99 199 168 97 197 166 95 194 165 94 124 117 104 131 122 107 138 128 109 142 130 111 146 133 112 149 135 113 152 138 115 154 139 117 156 140 119 153 138 118 150 136 117 154 139 118 160 143 120 164 146 122 168 149 124 170 150 125 171 151 127 176 156 129 182 160 132 187 164 135 191 167 137 187 164 135 181 158 130 177 155 129 174 154 128 184 162 135 199 175 145 205 180 150 207 182 153 209 184 156 211 186 158 213 188 159 214 189 160 216 191 161 218 193 161 219 194 162 220 194 163 221 195 164 222 197 166 224 198 167 227 200 168 227 200 166 226 198 163 224 195 159 222 192 155 220 190 153 221 191 150 222 191 148 221 190 144 222 190 141 222 191 139 220 189 136 213 182 131 205 175 125 196 165 117 194 164 114 212 179 122 225 191 127 226 192 125 226 192 123 225 190 120 224 188 117 222 186 115 220 184 113 221 186 114 222 188 115 222 187 113 222 187 112 221 186 111 220 186 111 220 186 111 220 186 111 217 183 108 214 181 106 211 178 102 208 175 99 204 171 97 200 168 94 197 165 92 193 163 90 112 102 87 121 109 91 129 116 95 133 119 97 137 122 99 140 124 100 144 127 102 146 129 104 149 131 106 147 130 106 145 128 105 150 132 108 155 136 110 160 140 113 166 144 116 167 145 117 168 146 118 171 149 120 175 152 123 181 157 126 188 162 130 186 160 129 180 156 126 179 155 126 179 157 128 188 165 135 202 177 145 208 181 149 209 182 151 211 184 154 214 186 157 216 189 158 219 192 160 221 194 160 221 195 161 222 195 161 223 196 162 224 197 163 225 198 164 227 199 165 229 201 166 230 201 165 229 200 162 227 197 158 225 193 154 223 191 151 223 191 149 223 192 146 224 192 143 224 192 140 221 190 136 214 184 131 199 170 123 186 158 115 177 148 106 180 149 104 208 174 116 228 192 124 229 193 123 230 194 122 229 192 119 227 190 117 225 188 114 223 187 112 224 188 113 225 189 113 225 189 112 225 189 111 225 189 112 224 189 112 223 189 112 221 188 111 219 185 108 216 182 105 212 178 101 208 174 97 203 170 94 198 166 90 194 162 88 189 158 85 109 97 77 118 104 82 127 112 88 131 114 89 134 117 91 138 120 93 141 122 96 144 125 98 147 128 100 147 128 100 147 127 100 151 130 103 156 134 106 161 138 109 166 142 113 167 143 114 168 143 114 170 146 116 173 148 118 179 154 122 187 160 126 186 159 125 181 155 123 180 155 124 180 157 127 189 165 134 203 176 143 209 181 148 211 182 150 213 184 153 215 187 155 218 190 157 222 193 159 224 195 159 224 195 159 224 196 160 225 196 161 225 197 162 226 198 163 228 200 163 231 202 164 232 202 163 232 201 161 230 199 158 227 195 154 226 193 150 225 193 147 226 193 145 227 194 142 225 192 138 217 186 132 205 176 125 184 157 115 170 143 106 169 139 100 177 145 99 208 173 113 231 194 122 231 194 121 231 193 119 230 192 117 228 190 114 226 189 113 225 188 111 226 189 111 226 189 110 226 189 110 226 190 109 226 191 111 227 192 112 225 191 112 223 190 112 220 186 108 217 182 104 213 178 99 208 174 95 202 168 91 196 163 87 191 158 84 185 153 81 122 108 84 130 114 88 137 120 92 139 122 94 142 123 95 146 127 98 150 130 100 154 133 103 158 137 105 159 137 106 160 138 107 163 141 109 166 143 112 170 146 114 173 148 116 173 149 117 173 148 118 176 150 119 179 154 122 184 158 124 189 162 126 188 160 126 184 157 124 179 154 124 174 151 123 184 160 131 200 173 141 208 179 147 211 181 149 213 184 152 216 186 154 218 188 155 221 191 156 223 193 157 224 194 157 225 195 158 224 194 158 225 195 159 226 197 160 228 199 161 231 201 162 232 202 162 233 201 160 232 200 158 230 197 154 228 195 150 229 196 147 229 196 144 228 195 140 223 190 135 209 179 126 192 164 117 167 142 107 158 132 100 178 147 101 199 163 104 218 181 114 232 194 120 231 192 117 229 190 114 227 188 111 225 186 108 225 186 109 225 187 108 225 187 107 224 187 106 223 186 105 223 185 104 225 188 108 226 191 110 226 191 111 225 191 111 220 186 106 216 181 101 213 177 97 209 174 94 202 167 89 195 161 85 189 156 82 183 151 79 131 116 89 137 121 93 144 126 96 145 127 97 146 128 98 150 130 100 154 134 103 159 137 106 164 141 108 166 143 110 167 144 111 169 146 113 172 148 115 174 149 116 175 151 117 175 150 118 174 149 119 178 152 121 182 155 123 186 159 125 190 162 126 188 160 126 184 156 124 176 151 122 168 146 120 178 154 127 196 168 139 205 175 145 209 179 148 212 181 150 214 183 151 216 185 152 218 187 153 221 189 154 223 192 155 223 192 155 223 192 156 224 193 156 225 195 157 227 197 158 230 199 159 232 200 159 233 200 158 233 199 156 230 196 152 228 195 149 228 195 145 227 194 141 226 192 136 219 186 130 203 172 121 182 155 111 155 131 100 149 124 95 185 152 101 214 175 107 225 187 114 232 194 118 230 190 114 227 187 110 225 185 106 223 183 104 224 185 105 225 186 106 224 185 104 223 185 102 222 184 101 221 183 101 224 187 105 226 190 109 226 191 110 225 191 110 220 184 104 215 179 97 212 175 94 208 172 91 201 165 87 193 159 82 187 153 80 181 148 77 132 116 90 137 120 93 143 125 97 144 125 97 145 126 97 147 128 99 149 130 101 154 133 103 158 136 106 160 138 107 162 139 108 164 141 110 166 143 111 167 143 112 168 143 113 168 143 114 168 143 115 172 146 117 176 150 120 180 153 122 184 157 124 181 154 123 176 149 121 168 144 119 160 139 117 171 148 124 189 162 136 199 170 141 203 173 144 206 175 146 208 177 147 211 179 148 213 181 149 215 183 150 218 186 152 219 188 152 220 188 152 221 189 153 221 190 153 223 192 153 227 194 155 229 195 155 230 196 153 229 194 151 225 190 147 221 187 142 219 185 138 217 183 133 216 182 128 211 177 123 200 168 116 183 154 108 155 129 97 148 122 93 187 153 100 216 176 107 225 185 111 230 191 113 228 188 109 226 185 106 224 184 103 223 183 102 225 184 103 226 185 104 225 185 103 224 185 102 223 184 101 223 184 100 225 187 104 226 189 106 225 189 106 224 188 106 218 181 99 212 175 93 208 171 90 203 167 87 197 161 83 190 155 80 184 150 77 178 145 75 130 114 90 135 118 93 140 122 95 141 123 96 142 124 96 143 125 97 144 126 98 148 128 100 151 131 103 154 132 104 156 134 105 158 135 107 160 137 108 160 137 108 160 137 109 161 137 110 162 138 111 165 140 113 169 143 116 173 147 119 178 151 122 174 147 120 166 142 116 160 137 115 153 133 113 164 142 121 183 157 132 193 164 138 198 167 140 201 170 142 203 171 142 205 173 143 208 175 145 211 178 146 214 181 148 216 183 149 217 184 149 217 184 149 218 185 148 220 187 149 223 190 150 225 191 150 226 191 148 225 189 145 220 184 141 215 180 136 210 175 130 205 171 124 201 168 119 197 164 115 191 159 110 177 148 104 152 125 94 147 120 90 184 150 98 213 174 105 222 182 108 228 188 109 226 185 105 224 183 101 223 182 100 223 182 99 225 184 101 226 185 102 225 185 101 224 184 100 224 185 100 225 186 100 225 187 102 226 189 104 224 187 102 222 185 100 215 177 94 209 170 88 203 165 85 198 161 82 193 156 80 188 152 78 182 147 75 177 143 73 123 109 86 127 112 88 132 115 90 134 117 91 136 119 93 137 120 94 138 121 95 141 122 97 143 124 98 147 126 100 151 129 103 153 130 104 154 131 105 154 131 105 154 131 105 155 131 106 156 133 108 158 134 110 161 136 111 165 139 114 169 142 116 163 138 114 153 131 110 148 127 109 145 125 110 157 136 118 177 151 129 187 159 134 193 162 136 196 164 137 198 165 138 200 167 139 203 169 141 206 173 143 210 177 145 212 179 146 213 180 145 214 181 145 215 182 145 217 183 145 220 185 145 222 186 144 222 185 142 221 183 139 217 179 135 211 173 129 199 164 121 188 155 114 177 146 107 168 139 102 163 135 98 154 128 94 141 115 87 142 115 85 172 140 92 199 162 98 216 176 103 227 186 105 224 183 101 221 180 97 221 179 96 221 180 95 224 183 98 226 185 99 224 183 97 222 182 95 224 185 97 226 187 98 226 188 100 226 189 101 223 185 97 218 180 93 210 172 87 202 163 82 196 158 79 190 152 77 189 152 77 187 151 76 183 148 74 179 144 72 115 102 82 119 105 84 123 108 85 127 112 87 131 115 90 132 116 91 133 116 92 134 116 93 135 117 94 140 120 97 145 124 100 146 125 100 147 125 101 147 125 101 147 124 101 148 126 103 149 127 105 150 128 106 152 129 107 155 131 109 159 134 112 151 128 108 138 119 103 135 117 103 136 118 105 151 130 114 172 147 127 183 155 132 189 159 133 192 160 134 194 161 134 197 162 136 199 165 138 203 169 140 207 174 142 209 176 143 210 177 142 211 177 142 212 178 141 214 179 141 217 181 140 218 181 139 218 179 137 217 177 134 215 174 129 207 168 123 192 156 114 176 143 105 157 128 97 144 118 90 139 115 88 135 111 85 133 107 82 140 111 81 164 131 86 187 152 92 210 171 98 226 184 101 222 180 96 219 177 93 219 177 91 220 178 91 224 183 95 226 186 97 223 182 94 221 180 91 224 184 94 227 188 96 227 188 97 226 188 98 222 183 93 217 178 87 207 167 82 197 158 76 191 152 74 185 146 73 186 148 74 187 150 75 184 148 73 181 146 72 105 94 78 110 98 80 116 102 82 123 107 85 129 113 89 129 113 89 129 112 90 128 112 90 127 111 91 131 113 93 135 117 95 137 117 95 137 118 96 138 118 97 138 118 98 139 119 100 140 120 101 141 121 103 143 122 104 146 124 106 149 126 108 137 117 102 119 104 94 118 104 94 125 109 98 145 125 109 173 147 124 185 156 130 190 159 132 193 160 133 194 160 133 197 161 134 199 164 136 202 168 138 206 172 140 209 175 141 210 176 141 211 177 140 212 177 139 213 177 137 214 177 135 214 176 133 213 173 131 213 171 128 212 170 124 207 166 119 195 157 111 178 143 103 154 122 91 136 108 84 131 105 82 128 103 79 132 104 77 142 111 77 165 131 82 187 150 87 207 167 92 220 179 94 218 177 91 217 176 88 218 176 87 220 178 87 225 185 93 229 189 97 225 185 93 222 182 90 224 184 91 225 186 92 226 188 94 227 188 95 223 185 91 219 180 87 208 169 80 198 158 74 192 153 72 186 148 71 188 150 72 189 152 73 186 149 72 182 147 70 97 88 74 104 92 77 110 97 80 118 104 84 127 110 88 126 110 88 125 109 88 123 107 88 121 106 88 123 107 89 126 110 90 128 111 91 129 112 92 130 112 94 130 112 96 131 113 97 132 113 98 133 114 100 134 115 101 136 117 103 139 119 105 125 108 98 104 93 87 107 95 88 118 103 93 143 122 106 174 147 122 186 156 129 190 159 130 193 159 131 194 159 131 196 160 132 199 163 134 202 167 136 205 171 137 207 173 138 209 175 139 210 175 138 210 174 136 210 173 133 211 172 131 211 171 128 209 168 125 209 166 122 209 167 119 206 164 115 198 158 109 182 144 100 155 121 87 135 105 79 129 101 77 128 101 75 135 105 74 147 114 75 170 134 79 191 152 84 206 167 88 217 177 90 217 176 86 217 175 84 217 176 83 219 178 84 226 186 91 231 192 96 227 188 93 224 185 90 224 185 89 224 185 88 226 187 91 227 189 92 224 186 90 221 182 87 210 171 79 198 160 72 193 154 70 189 150 69 190 151 70 190 153 71 187 150 70 183 147 69 98 88 73 104 93 76 110 97 79 118 103 83 125 108 86 124 108 87 124 107 88 121 105 87 118 103 86 119 103 87 120 104 88 123 107 90 127 110 92 129 112 94 130 112 96 129 111 97 127 110 97 128 111 98 129 112 100 130 112 101 130 113 103 123 107 98 113 98 90 119 102 92 132 111 98 152 128 109 176 147 122 185 155 127 189 157 128 190 157 128 191 156 128 194 158 129 197 161 131 200 165 132 203 168 133 204 169 133 204 169 132 204 169 131 205 168 129 206 168 127 206 167 125 207 166 123 207 164 121 207 164 118 207 164 115 205 162 110 199 158 104 190 150 97 176 138 88 165 128 82 157 123 81 154 121 79 156 122 76 167 130 76 192 154 84 212 173 90 220 180 92 224 184 92 221 181 87 219 178 84 217 177 82 218 178 81 224 185 87 229 191 92 228 191 93 227 190 93 226 188 90 225 187 88 226 188 90 227 189 91 225 188 90 223 185 88 213 174 80 203 164 72 197 159 70 192 153 67 190 152 68 188 151 68 185 148 67 182 146 66 98 88 72 104 93 75 110 97 79 116 102 82 122 106 85 122 106 86 122 106 88 119 103 86 115 100 85 114 100 85 114 100 86 119 104 88 125 109 91 128 111 94 130 112 96 127 110 96 123 107 96 123 107 97 125 109 99 124 109 100 123 108 101 122 106 98 121 103 94 131 109 97 144 118 102 160 131 111 176 147 121 183 152 125 186 153 125 187 154 125 188 153 125 190 155 126 195 159 128 198 162 128 200 165 129 200 165 128 199 163 126 199 162 124 200 162 123 201 162 122 202 162 120 204 162 119 205 162 117 206 162 115 206 163 111 205 162 106 201 158 100 198 155 95 196 154 89 192 150 86 184 145 85 179 141 82 177 138 77 185 146 78 212 172 89 231 191 97 231 192 97 230 192 96 226 187 90 221 183 85 219 180 82 218 179 81 223 185 86 228 191 90 230 193 94 231 195 96 228 192 92 226 189 89 227 190 91 227 191 92 226 190 91 225 188 90 216 179 82 208 170 74 202 163 70 196 157 67 191 154 66 187 150 65 184 148 65 181 146 64 95 86 71 101 90 74 106 94 77 112 99 80 118 103 83 119 103 84 119 103 85 117 101 85 114 100 84 114 99 85 113 99 85 118 103 88 123 107 90 125 108 93 126 109 95 123 107 95 118 104 94 119 105 96 122 107 98 124 108 100 126 110 101 127 109 100 127 108 97 134 112 99 145 119 103 157 129 109 169 140 117 175 144 120 178 146 121 180 147 121 181 147 121 184 150 122 189 153 123 192 156 123 194 158 123 194 158 122 193 156 120 193 156 119 195 157 117 198 159 117 202 162 117 205 163 116 207 164 114 208 165 112 209 167 109 209 167 105 207 165 100 206 165 96 208 166 94 207 167 92 203 164 91 199 160 87 192 153 79 195 157 79 217 180 94 233 198 106 235 200 109 235 201 109 232 198 105 229 195 100 227 192 96 225 190 94 228 194 97 231 198 100 232 199 102 232 200 102 230 197 99 228 195 98 229 197 100 230 199 103 230 199 103 229 198 103 222 189 93 215 181 83 208 172 77 201 164 71 197 161 69 193 158 67 189 153 65 184 149 63 93 84 71 97 87 73 102 90 76 108 95 79 114 100 81 115 100 82 115 100 83 114 99 83 112 98 83 112 98 84 112 98 85 116 101 87 120 105 89 122 105 91 122 105 93 118 103 93 113 100 93 115 102 95 119 105 97 124 108 99 129 111 101 131 112 101 132 111 100 137 114 101 145 119 103 153 126 108 162 133 114 167 137 116 170 138 116 172 140 117 174 141 117 178 144 118 183 148 118 186 150 118 189 152 118 189 152 116 187 150 114 188 150 113 190 152 112 195 155 112 201 161 113 206 165 113 209 166 111 210 168 110 212 170 107 212 171 104 212 171 100 213 173 98 218 178 97 221 181 97 220 182 96 216 178 92 206 167 82 205 167 81 222 188 99 235 203 114 237 207 119 239 210 122 238 208 117 236 205 113 234 203 108 232 201 105 233 203 107 234 204 109 234 204 109 234 204 108 231 201 106 229 199 105 231 202 109 233 205 113 233 206 114 233 206 114 227 198 102 221 190 92 214 181 83 206 172 75 203 168 72 199 165 68 193 159 66 186 153 63 89 80 68 93 83 71 97 87 73 102 90 76 107 94 78 106 93 78 106 93 79 104 92 79 103 91 80 104 92 80 105 92 81 108 95 83 113 98 86 114 100 88 115 100 90 112 99 91 109 98 91 113 100 93 118 104 96 124 108 99 130 111 101 131 111 101 131 110 100 135 112 100 141 116 101 148 121 104 154 126 109 158 130 111 161 132 112 162 132 112 163 133 113 167 136 114 175 141 114 180 145 114 184 147 113 186 148 112 185 147 111 185 147 109 187 149 108 191 153 108 199 159 109 204 164 109 207 167 108 209 168 107 208 169 105 208 169 102 207 168 98 209 170 95 215 177 96 220 182 96 221 184 97 218 183 94 209 174 85 208 174 85 223 191 102 234 204 116 236 208 121 238 210 123 236 208 118 235 206 114 234 205 112 233 204 111 232 203 109 232 203 108 233 205 110 233 206 111 230 202 107 228 199 104 230 202 108 231 204 110 232 205 112 231 205 112 226 198 103 221 191 93 216 185 86 211 178 80 206 173 74 200 167 69 195 162 67 190 157 65 85 77 66 88 80 68 92 82 71 96 85 73 99 87 75 98 87 75 97 86 75 96 85 75 95 84 76 96 85 77 97 86 78 101 89 80 105 92 83 107 94 85 108 96 88 107 96 88 105 95 89 110 98 92 117 103 95 124 107 98 130 111 100 131 111 100 130 109 99 133 110 98 137 112 98 142 116 101 146 120 105 149 123 107 152 125 108 153 125 108 151 125 108 157 128 109 166 134 110 174 139 110 180 143 109 182 144 108 182 144 107 182 144 106 183 145 104 188 150 103 196 157 104 202 163 105 206 166 105 206 168 104 204 167 102 203 166 99 202 165 95 205 168 93 213 176 94 219 182 95 221 186 98 220 187 96 213 180 89 212 180 90 224 194 105 233 205 117 235 209 122 236 211 123 235 208 118 234 206 114 234 207 116 233 206 116 231 204 111 230 203 107 232 206 112 233 207 114 229 203 109 226 199 105 228 201 106 230 203 108 230 204 110 229 204 110 224 198 102 220 192 94 218 188 89 215 184 83 208 177 76 201 169 70 197 165 68 194 162 67 79 72 64 82 74 66 85 77 67 88 79 69 92 82 71 91 81 71 90 80 71 90 80 72 90 80 73 90 81 74 91 82 75 96 85 78 101 90 81 105 92 84 107 95 87 106 94 88 103 93 88 106 96 90 111 99 93 118 104 96 125 108 98 127 108 98 126 106 97 128 106 96 131 107 95 135 111 98 139 115 101 141 117 103 143 118 104 142 118 104 140 116 103 144 118 104 153 123 104 161 129 105 170 135 105 174 137 104 175 138 103 177 140 102 181 143 101 186 148 100 194 154 100 198 159 100 200 161 99 199 160 97 195 157 95 193 156 92 193 157 88 197 161 87 205 169 88 213 178 91 219 186 96 222 190 98 218 187 95 218 188 96 226 198 107 232 205 115 234 208 118 235 210 120 233 207 115 231 205 112 231 206 115 231 206 116 230 205 113 229 204 112 230 207 116 231 208 118 228 205 113 226 202 108 226 201 106 226 200 104 225 200 102 225 199 101 222 194 95 219 190 89 215 185 83 211 180 77 206 174 72 200 168 66 196 163 64 191 158 62 73 68 62 75 69 63 78 71 64 81 73 66 85 76 68 84 75 68 83 74 68 84 75 69 86 77 71 85 77 72 84 77 73 90 82 76 98 87 79 103 91 83 107 94 86 104 93 87 101 91 87 102 93 89 106 96 91 113 100 94 121 105 96 122 105 96 122 103 95 123 103 94 125 103 92 128 106 94 132 109 98 133 111 99 134 112 100 132 110 99 128 108 98 132 109 98 139 113 99 149 119 99 161 127 100 167 131 100 169 132 99 173 136 98 178 140 97 184 146 97 190 152 96 194 155 95 194 155 93 191 153 90 185 148 88 182 147 85 184 149 82 189 154 81 198 163 83 207 173 87 217 185 94 223 192 99 222 193 100 223 196 102 228 201 108 231 205 113 233 207 115 233 208 116 230 205 113 228 203 111 228 205 114 229 206 116 228 205 115 227 205 116 229 208 120 230 210 122 228 207 117 226 204 112 224 201 106 222 198 99 221 196 96 221 194 92 219 191 88 218 188 84 213 182 77 208 177 71 203 172 67 199 167 63 194 161 60 189 155 58 67 63 59 70 65 60 73 67 62 76 69 63 78 71 65 77 70 65 77 70 65 77 71 66 78 72 67 79 73 69 81 75 71 87 79 74 94 85 77 98 87 80 100 89 82 97 88 83 93 86 83 95 88 85 99 92 88 106 96 90 114 100 93 115 100 93 114 98 92 115 98 91 117 97 89 120 100 91 123 103 94 124 104 95 125 105 95 124 104 94 122 102 94 125 104 94 132 108 95 142 114 96 154 122 97 161 126 97 164 128 96 168 132 95 172 136 94 177 140 93 183 145 92 186 148 90 187 149 88 185 147 86 178 143 83 176 141 81 177 143 79 182 149 79 194 161 83 204 172 87 212 182 94 218 190 100 221 195 104 223 198 107 224 200 110 226 202 112 226 204 114 226 205 115 226 205 116 226 205 116 224 204 116 223 204 117 224 204 117 224 205 118 227 208 122 228 210 124 226 207 118 223 203 112 220 199 106 217 195 100 218 195 97 218 194 94 217 191 90 215 187 85 208 180 77 201 173 70 197 168 66 194 163 62 189 157 59 184 151 56 61 58 56 65 61 58 61 58 56 70 65 61 69 64 60 71 66 63 71 66 62 70 67 64 71 66 63 74 70 67 71 67 64 86 79 73 79 74 70 93 84 78 92 83 76 88 82 79 93 84 79 89 85 83 85 82 80 103 93 88 94 89 86 107 94 89 109 96 90 109 92 87 107 93 89 113 95 89 111 93 87 116 98 90 115 97 90 115 97 89 116 98 90 123 102 90 117 98 89 145 115 93 133 107 92 159 124 93 155 121 94 166 131 91 163 128 92 175 139 88 171 135 89 180 143 84 179 142 86 171 136 79 177 141 82 170 138 76 169 135 77 192 162 84 179 148 79 208 183 95 201 174 89 221 198 110 215 191 102 220 199 111 222 200 112 219 200 113 220 199 112 223 206 121 221 203 116 219 203 118 222 205 120 221 204 119 219 203 118 227 211 127 224 207 123 222 204 114 225 208 122 214 194 101 218 199 107 216 194 97 214 193 99 213 188 88 215 191 92 196 170 70 205 179 79 189 159 61 192 164 65 179 148 55 184 154 58 179 148 55 